<?xml version="1.0" encoding="UTF-8" standalone="no"?>
<!-- Created with Inkscape (http://www.inkscape.org/) -->

<svg
   width="16"
   height="16"
   viewBox="0 0 16 16"
   version="1.1"
   id="svg1"
   sodipodi:docname="collision_reaction_rigid.svg"
   xml:space="preserve"
   inkscape:version="1.4 (e7c3feb100, 2024-10-09)"
   xmlns:inkscape="http://www.inkscape.org/namespaces/inkscape"
   xmlns:sodipodi="http://sodipodi.sourceforge.net/DTD/sodipodi-0.dtd"
   xmlns="http://www.w3.org/2000/svg"
   xmlns:svg="http://www.w3.org/2000/svg"><sodipodi:namedview
     id="namedview1"
     pagecolor="#000000"
     bordercolor="#000000"
     borderopacity="0.25"
     inkscape:showpageshadow="2"
     inkscape:pageopacity="0.0"
     inkscape:pagecheckerboard="0"
     inkscape:deskcolor="#d1d1d1"
     inkscape:zoom="37.255689"
     inkscape:cx="6.1332915"
     inkscape:cy="8.3611392"
     inkscape:window-width="1920"
     inkscape:window-height="1052"
     inkscape:window-x="0"
     inkscape:window-y="0"
     inkscape:window-maximized="1"
     inkscape:current-layer="svg1" /><defs
     id="defs1" /><g
     id="layer1"
     inkscape:label="Frame"><path
       fill="none"
       stroke="#8da5f3"
       stroke-linejoin="round"
       stroke-width="2"
       d="M 14,14 H 2 V 2 h 12 z"
       id="path1"
       style="stroke:#ffffff;stroke-opacity:1" /></g><g
     inkscape:groupmode="layer"
     id="layer2"
     inkscape:label="hit"><rect
       style="fill:#8da5f3;fill-opacity:1"
       id="rect3"
       width="0.87307239"
       height="3.5871887"
       x="9.2241993"
       y="2.0759194"
       ry="0.43653619" /><rect
       style="fill:#8da5f3;fill-opacity:1"
       id="rect3-6"
       width="0.87307239"
       height="3.5871887"
       x="6.4317908"
       y="-14.341637"
       ry="0.43653619"
       transform="rotate(90)" /><rect
       style="fill:#8da5f3;fill-opacity:1"
       id="rect3-61"
       width="0.79254705"
       height="4.6340075"
       x="11.268051"
       y="-7.9537277"
       ry="0.43653619"
       transform="rotate(45)"
       rx="0.39627352" /></g><path
     fill="#8da5f3"
     d="m 5.9403239,5.6631081 a 4.1575926,4.1575926 0 0 0 0,8.3151849 4.1575926,4.1575926 0 0 0 0,-8.3151849 z M 7.0991043,6.4554264 A 3.5636508,3.5636508 0 0 1 9.5045686,9.8207002 H 5.346976 A 1.1878836,1.1878836 0 0 0 4.7827313,8.8109996 C 5.582177,7.6058917 6.3293557,6.8729675 7.0991043,6.4548325 Z M 3.0436697,7.7502196 c 0.086715,0.3860621 0.2126312,0.7620273 0.4062562,1.1189863 A 1.1878836,1.1878836 0 0 0 2.9706149,9.8207002 H 2.3766731 A 3.5636508,3.5636508 0 0 1 3.0436697,7.7502196 Z m 0.4020986,3.0207874 a 1.1878836,1.1878836 0 0 0 1.4254603,0 c 0.8742823,1.20392 1.6202732,1.938626 2.2569788,2.375767 A 3.5636508,3.5636508 0 0 1 2.8815236,11.66192 C 3.030009,11.305555 3.1784945,11.067978 3.4457683,10.771007 Z"
     id="path1-5"
     style="stroke-width:0.593942" /></svg>
