<?xml version="1.0" encoding="UTF-8" standalone="no"?>
<!-- Created with Inkscape (http://www.inkscape.org/) -->

<svg
   width="16"
   height="16"
   viewBox="0 0 16 16"
   version="1.1"
   id="svg1"
   sodipodi:docname="collision_reaction_character.svg"
   xml:space="preserve"
   inkscape:version="1.4 (e7c3feb100, 2024-10-09)"
   xmlns:inkscape="http://www.inkscape.org/namespaces/inkscape"
   xmlns:sodipodi="http://sodipodi.sourceforge.net/DTD/sodipodi-0.dtd"
   xmlns="http://www.w3.org/2000/svg"
   xmlns:svg="http://www.w3.org/2000/svg"><sodipodi:namedview
     id="namedview1"
     pagecolor="#000000"
     bordercolor="#000000"
     borderopacity="0.25"
     inkscape:showpageshadow="2"
     inkscape:pageopacity="0.0"
     inkscape:pagecheckerboard="0"
     inkscape:deskcolor="#d1d1d1"
     inkscape:zoom="37.255689"
     inkscape:cx="6.1332916"
     inkscape:cy="8.3611393"
     inkscape:window-width="1920"
     inkscape:window-height="1052"
     inkscape:window-x="0"
     inkscape:window-y="0"
     inkscape:window-maximized="1"
     inkscape:current-layer="layer2" /><defs
     id="defs1" /><g
     id="layer1"
     inkscape:label="Frame"><path
       fill="none"
       stroke="#8da5f3"
       stroke-linejoin="round"
       stroke-width="2"
       d="M 14,14 H 2 V 2 h 12 z"
       id="path1"
       style="stroke:#ffffff;stroke-opacity:1" /></g><path
     fill="#8da5f3"
     d="M 4.8167121,4.6688295 A 0.66667509,0.66667509 0 0 0 4.150037,5.3355046 v 2.0000252 a 0.66667509,0.66667509 0 0 0 0.6666751,0.666675 h 0.6666751 v 0.6600086 a 0.66667509,0.66667509 0 0 0 -0.2106693,0.04133 L 3.9053673,9.1595524 3.4493615,7.7922022 a 0.66672217,0.66672217 0 0 0 -1.2653493,0.420672 l 0.6666751,2.0000248 a 0.66667509,0.66667509 0 0 0 0.843344,0.422005 l 1.1226808,-0.373338 v 0.406672 c 0,0.02733 0.012667,0.05067 0.016,0.07733 l -3.052705,2.034697 a 0.66675809,0.66675809 0 1 0 0.7400093,1.109347 l 3.3707095,-2.246695 0.9966792,1.990692 A 0.66667509,0.66667509 0 0 0 7.694082,13.96828 L 9.6941069,13.301605 A 0.66667509,0.66667509 0 1 0 9.2727683,12.036922 L 7.8207499,12.520261 7.1707421,11.219578 a 0.65400826,0.65400826 0 0 0 0.3126706,-0.55134 V 10.00223 H 8.405424 l 0.4813394,0.965345 A 0.66710203,0.66710203 0 1 0 10.080112,10.370901 L 9.4134367,9.0375514 A 0.66667509,0.66667509 0 0 0 8.8167625,8.6688804 H 6.8167376 V 8.0022048 H 7.4834127 A 0.66667509,0.66667509 0 0 0 8.1500874,7.3355298 V 5.3355046 A 0.66667509,0.66667509 0 0 0 7.4834127,4.6688295 Z m 0,1.3333501 H 5.4833872 V 7.3355298 H 4.8167121 Z"
     id="path1-5"
     style="stroke-width:0.666675"
     inkscape:label="CharacterBody2D" /><g
     inkscape:groupmode="layer"
     id="layer2"
     inkscape:label="hit"><rect
       style="fill:#8da5f3;fill-opacity:1"
       id="rect3"
       width="0.87307239"
       height="3.5871887"
       x="9.2241993"
       y="2.0759194"
       ry="0.43653619" /><rect
       style="fill:#8da5f3;fill-opacity:1"
       id="rect3-6"
       width="0.87307239"
       height="3.5871887"
       x="6.4317908"
       y="-14.341637"
       ry="0.43653619"
       transform="rotate(90)" /><rect
       style="fill:#8da5f3;fill-opacity:1"
       id="rect3-61"
       width="0.79254705"
       height="4.6340075"
       x="11.268051"
       y="-7.9537277"
       ry="0.43653619"
       transform="rotate(45)"
       rx="0.39627352" /></g></svg>
