<?xml version="1.0" encoding="UTF-8" standalone="no"?>
<!-- Created with Inkscape (http://www.inkscape.org/) -->

<svg
   width="16"
   height="16"
   viewBox="0 0 16 16"
   version="1.1"
   id="svg1"
   sodipodi:docname="collision_reaction_rigid.svg"
   xml:space="preserve"
   inkscape:version="1.4 (e7c3feb100, 2024-10-09)"
   xmlns:inkscape="http://www.inkscape.org/namespaces/inkscape"
   xmlns:sodipodi="http://sodipodi.sourceforge.net/DTD/sodipodi-0.dtd"
   xmlns="http://www.w3.org/2000/svg"
   xmlns:svg="http://www.w3.org/2000/svg"><sodipodi:namedview
     id="namedview1"
     pagecolor="#21252d"
     bordercolor="#000000"
     borderopacity="0.25"
     inkscape:showpageshadow="2"
     inkscape:pageopacity="0.0"
     inkscape:pagecheckerboard="0"
     inkscape:deskcolor="#d1d1d1"
     inkscape:zoom="37.255689"
     inkscape:cx="8.3611392"
     inkscape:cy="6.4553899"
     inkscape:window-width="1920"
     inkscape:window-height="1052"
     inkscape:window-x="0"
     inkscape:window-y="0"
     inkscape:window-maximized="1"
     inkscape:current-layer="svg1" /><defs
     id="defs1"><inkscape:path-effect
       effect="powermask"
       id="path-effect5"
       is_visible="true"
       lpeversion="1"
       uri="#mask-powermask-path-effect5"
       invert="false"
       hide_mask="false"
       background="true"
       background_color="#ffffffff" /><inkscape:path-effect
       effect="powermask"
       id="path-effect4"
       is_visible="true"
       lpeversion="1"
       uri="#mask-powermask-path-effect4"
       invert="false"
       hide_mask="false"
       background="true"
       background_color="#ffffffff" /><linearGradient
       id="swatch1"
       inkscape:swatch="solid"><stop
         style="stop-color:#000000;stop-opacity:1;"
         offset="0"
         id="stop1" /></linearGradient><mask
       maskUnits="userSpaceOnUse"
       id="mask-powermask-path-effect5"><path
         id="mask-powermask-path-effect5_box"
         style="fill:#ffffff;fill-opacity:1"
         d="M 0,0 H 16 V 16 H 0 Z" /><path
         sodipodi:type="star"
         style="fill:#000000;stroke:#000000;stroke-opacity:1"
         id="path5"
         inkscape:flatsided="false"
         sodipodi:sides="4"
         sodipodi:cx="7.5961552"
         sodipodi:cy="2.8183615"
         sodipodi:r1="5.5026836"
         sodipodi:r2="2.7513418"
         sodipodi:arg1="1.2275189"
         sodipodi:arg2="2.0129171"
         inkscape:rounded="0"
         inkscape:randomized="0"
         transform="translate(1.5686403,3.7621952)"
         d="M 9.4482215,8 6.4189735,5.3051517 2.4145167,4.6704278 5.109365,1.6411799 5.7440888,-2.363277 8.7733368,0.33157137 12.777794,0.9662952 10.082945,3.9955431 Z" /></mask><filter
       id="mask-powermask-path-effect5_inverse"
       inkscape:label="filtermask-powermask-path-effect5"
       style="color-interpolation-filters:sRGB"
       height="100"
       width="100"
       x="-50"
       y="-50"><feColorMatrix
         id="mask-powermask-path-effect5_primitive1"
         values="1"
         type="saturate"
         result="fbSourceGraphic" /><feColorMatrix
         id="mask-powermask-path-effect5_primitive2"
         values="-1 0 0 0 1 0 -1 0 0 1 0 0 -1 0 1 0 0 0 1 0 "
         in="fbSourceGraphic" /></filter></defs><g
     id="layer1"
     inkscape:label="Frame"
     style="display:none"><path
       fill="none"
       stroke="#8da5f3"
       stroke-linejoin="round"
       stroke-width="2"
       d="M 14,14 H 2 V 2 h 12 z"
       id="path1"
       style="stroke:#ffffff;stroke-opacity:1" /></g><path
     fill="#8da5f3"
     d="M 8,1 A 7,7 0 0 0 8,15 7,7 0 0 0 8,1 Z M 9.951,2.334 A 6,6 0 0 1 14.001,8 h -7 A 2,2 0 0 0 6.051,6.3 C 7.397,4.271 8.655,3.037 9.951,2.333 Z m -6.828,2.18 c 0.146,0.65 0.358,1.283 0.684,1.884 A 2,2 0 0 0 3,8 H 2 A 6,6 0 0 1 3.123,4.514 Z M 3.8,9.6 a 2,2 0 0 0 2.4,0 c 1.472,2.027 2.728,3.264 3.8,4 A 6,6 0 0 1 2.85,11.1 c 0.25,-0.6 0.5,-1 0.95,-1.5 z"
     id="path1-53"
     mask="url(#mask-powermask-path-effect5)"
     inkscape:path-effect="#path-effect5"
     inkscape:original-d="M 8,1 A 7,7 0 0 0 8,15 7,7 0 0 0 8,1 Z M 9.951,2.334 A 6,6 0 0 1 14.001,8 h -7 A 2,2 0 0 0 6.051,6.3 C 7.397,4.271 8.655,3.037 9.951,2.333 Z m -6.828,2.18 c 0.146,0.65 0.358,1.283 0.684,1.884 A 2,2 0 0 0 3,8 H 2 A 6,6 0 0 1 3.123,4.514 Z M 3.8,9.6 a 2,2 0 0 0 2.4,0 c 1.472,2.027 2.728,3.264 3.8,4 A 6,6 0 0 1 2.85,11.1 c 0.25,-0.6 0.5,-1 0.95,-1.5 z" /><path
     sodipodi:type="star"
     style="display:inline;fill:#ff6600;stroke:#ff6600"
     id="path3-0"
     inkscape:flatsided="false"
     sodipodi:sides="4"
     sodipodi:cx="7.5961552"
     sodipodi:cy="2.8183615"
     sodipodi:r1="5.5026836"
     sodipodi:r2="2.7513418"
     sodipodi:arg1="1.2275189"
     sodipodi:arg2="2.0129171"
     inkscape:rounded="0"
     inkscape:randomized="0"
     d="M 9.4482215,8 6.4189735,5.3051517 2.4145167,4.6704278 5.109365,1.6411799 5.7440888,-2.363277 8.7733368,0.33157137 12.777794,0.9662952 10.082945,3.9955431 Z"
     transform="matrix(0.68056508,0,0,0.65429372,3.9951175,4.7365205)" /></svg>
