<?xml version="1.0" encoding="UTF-8" standalone="no"?>
<!-- Created with Inkscape (http://www.inkscape.org/) -->

<svg
   width="16"
   height="16"
   viewBox="0 0 16 16"
   version="1.1"
   id="svg1"
   sodipodi:docname="collision_reaction_character.svg"
   xml:space="preserve"
   inkscape:version="1.4 (e7c3feb100, 2024-10-09)"
   xmlns:inkscape="http://www.inkscape.org/namespaces/inkscape"
   xmlns:sodipodi="http://sodipodi.sourceforge.net/DTD/sodipodi-0.dtd"
   xmlns="http://www.w3.org/2000/svg"
   xmlns:svg="http://www.w3.org/2000/svg"><sodipodi:namedview
     id="namedview1"
     pagecolor="#21252d"
     bordercolor="#000000"
     borderopacity="0.25"
     inkscape:showpageshadow="2"
     inkscape:pageopacity="0.0"
     inkscape:pagecheckerboard="0"
     inkscape:deskcolor="#d1d1d1"
     inkscape:zoom="37.255689"
     inkscape:cx="8.3611392"
     inkscape:cy="6.4553899"
     inkscape:window-width="1920"
     inkscape:window-height="1052"
     inkscape:window-x="0"
     inkscape:window-y="0"
     inkscape:window-maximized="1"
     inkscape:current-layer="svg1" /><defs
     id="defs1"><inkscape:path-effect
       effect="powermask"
       id="path-effect2"
       is_visible="true"
       lpeversion="1"
       uri="#mask-powermask-path-effect2"
       invert="false"
       hide_mask="false"
       background="true"
       background_color="#ffffffff" /><inkscape:path-effect
       effect="powermask"
       id="path-effect5"
       is_visible="true"
       lpeversion="1"
       uri="#mask-powermask-path-effect5"
       invert="false"
       hide_mask="false"
       background="true"
       background_color="#ffffffff" /><inkscape:path-effect
       effect="powermask"
       id="path-effect4"
       is_visible="true"
       lpeversion="1"
       uri="#mask-powermask-path-effect4"
       invert="false"
       hide_mask="false"
       background="true"
       background_color="#ffffffff" /><linearGradient
       id="swatch1"
       inkscape:swatch="solid"><stop
         style="stop-color:#000000;stop-opacity:1;"
         offset="0"
         id="stop1" /></linearGradient><mask
       maskUnits="userSpaceOnUse"
       id="mask-powermask-path-effect2"><path
         id="mask-powermask-path-effect2_box"
         style="fill:#ffffff;fill-opacity:1"
         d="M 0.68377133,0.0509998 H 15.705039 V 16.051054 H 0.68377133 Z" /><path
         sodipodi:type="star"
         style="display:inline;fill:#000000;stroke:#000000;stroke-opacity:1"
         id="path2"
         inkscape:flatsided="false"
         sodipodi:sides="4"
         sodipodi:cx="7.5961552"
         sodipodi:cy="2.8183615"
         sodipodi:r1="5.5026836"
         sodipodi:r2="2.7513418"
         sodipodi:arg1="1.2275189"
         sodipodi:arg2="2.0129171"
         inkscape:rounded="0"
         inkscape:randomized="0"
         transform="translate(3.7802671,4.5028608)"
         d="M 9.4482215,8 6.4189735,5.3051517 2.4145167,4.6704278 5.109365,1.6411799 5.7440888,-2.363277 8.7733368,0.33157137 12.777794,0.9662952 10.082945,3.9955431 Z" /></mask><filter
       id="mask-powermask-path-effect2_inverse"
       inkscape:label="filtermask-powermask-path-effect2"
       style="color-interpolation-filters:sRGB"
       height="100"
       width="100"
       x="-50"
       y="-50"><feColorMatrix
         id="mask-powermask-path-effect2_primitive1"
         values="1"
         type="saturate"
         result="fbSourceGraphic" /><feColorMatrix
         id="mask-powermask-path-effect2_primitive2"
         values="-1 0 0 0 1 0 -1 0 0 1 0 0 -1 0 1 0 0 0 1 0 "
         in="fbSourceGraphic" /></filter></defs><g
     id="layer1"
     inkscape:label="Frame"
     style="display:none"><path
       fill="none"
       stroke="#8da5f3"
       stroke-linejoin="round"
       stroke-width="2"
       d="M 14,14 H 2 V 2 h 12 z"
       id="path1"
       style="stroke:#ffffff;stroke-opacity:1" /></g><path
     fill="#8da5f3"
     d="m 6.6839997,1.0509998 a 1,1 0 0 0 -1,1 v 3 a 1,1 0 0 0 1,1 h 1 v 0.99 a 1,1 0 0 0 -0.316,0.062 l -2.051,0.684 -0.684,-2.051 a 1.0000708,1.0000708 0 0 0 -1.8980003,0.631 l 1,3.0000001 A 1,1 0 0 0 4.9999997,10 l 1.684,-0.5600001 V 10.05 c 0,0.041 0.019,0.076 0.024,0.116 l -4.5790003,3.052 a 1.0001245,1.0001245 0 1 0 1.11,1.664 l 5.0560003,-3.37 1.495,2.986 A 1,1 0 0 0 11,15 l 3,-1 A 1,1 0 1 0 13.368,12.103 L 11.19,12.828 10.215,10.877 A 0.981,0.981 0 0 0 10.684,10.05 V 9.0509998 h 1.383 L 12.789,10.499 a 1.0006405,1.0006405 0 1 0 1.79,-0.8950001 l -1,-2.0000001 a 1,1 0 0 0 -0.895,-0.553 H 9.6839997 v -1 H 10.684 a 1,1 0 0 0 1,-1 v -3 a 1,1 0 0 0 -1,-1 z m 0,2 h 1 v 2 h -1 z"
     id="path1-5"
     style="display:inline"
     mask="url(#mask-powermask-path-effect2)"
     inkscape:path-effect="#path-effect2"
     inkscape:original-d="m 6.6839997,1.0509998 a 1,1 0 0 0 -1,1 v 3 a 1,1 0 0 0 1,1 h 1 v 0.99 a 1,1 0 0 0 -0.316,0.062 l -2.051,0.684 -0.684,-2.051 a 1.0000708,1.0000708 0 0 0 -1.8980003,0.631 l 1,3.0000001 A 1,1 0 0 0 4.9999997,10 l 1.684,-0.5600001 V 10.05 c 0,0.041 0.019,0.076 0.024,0.116 l -4.5790003,3.052 a 1.0001245,1.0001245 0 1 0 1.11,1.664 l 5.0560003,-3.37 1.495,2.986 A 1,1 0 0 0 11,15 l 3,-1 A 1,1 0 1 0 13.368,12.103 L 11.19,12.828 10.215,10.877 A 0.981,0.981 0 0 0 10.684,10.05 V 9.0509998 h 1.383 L 12.789,10.499 a 1.0006405,1.0006405 0 1 0 1.79,-0.8950001 l -1,-2.0000001 a 1,1 0 0 0 -0.895,-0.553 H 9.6839997 v -1 H 10.684 a 1,1 0 0 0 1,-1 v -3 a 1,1 0 0 0 -1,-1 z m 0,2 h 1 v 2 h -1 z" /><path
     sodipodi:type="star"
     style="display:inline;fill:#ff6600;stroke:#ff6600"
     id="path3-0"
     inkscape:flatsided="false"
     sodipodi:sides="4"
     sodipodi:cx="7.5961552"
     sodipodi:cy="2.8183615"
     sodipodi:r1="5.5026836"
     sodipodi:r2="2.7513418"
     sodipodi:arg1="1.2275189"
     sodipodi:arg2="2.0129171"
     inkscape:rounded="0"
     inkscape:randomized="0"
     d="M 9.4482215,8 6.4189735,5.3051517 2.4145167,4.6704278 5.109365,1.6411799 5.7440888,-2.363277 8.7733368,0.33157137 12.777794,0.9662952 10.082945,3.9955431 Z"
     transform="matrix(0.68056508,0,0,0.65429372,6.2067443,5.4771861)" /></svg>
